# xmcd
#
# Track frame offsets:
#	150
#	17925
#	35618
#	54689
#	79149
#	100432
#	129192
#	152010
#	169667
#	181762
#	199765
#	217474
#	236889
#	263264
#
# Disc length: 3724 seconds
#
# Revision: 1
# Processed by: cddbd v1.5.2PL0 Copyright (c) Steve Scherf et al.
# Submitted via: EasyCDDAExtractor 11.5.0.1
#
DISCID=c00e8a0e
DTITLE=안찬용밴드 2 - 다윗이야기
DYEAR=2008
DGENRE=Contemporary Christian
TTITLE0=기름부으심
TTITLE1=승리
TTITLE2=내게 강 같은 평화
TTITLE3=하나님의 눈
TTITLE4=그럼에도 불구하고
TTITLE5=있는 모습 그대로
TTITLE6=골짜기의 노래
TTITLE7=주의 날개.. (피난처)
TTITLE8=법궤
TTITLE9=Where Are You?
TTITLE10=가시사랑
TTITLE11=내겐
TTITLE12=왕이 된 소년의 이야기
TTITLE13=주님 닮게 하소서
EXTD=YEAR: 2008
EXTT0=
EXTT1=
EXTT2=
EXTT3=
EXTT4=
EXTT5=
EXTT6=
EXTT7=
EXTT8=
EXTT9=
EXTT10=
EXTT11=
EXTT12=
EXTT13=
PLAYORDER=
